<mxfile host="app.diagrams.net" agent="Mozilla/5.0 (Windows NT 10.0; Win64; x64) AppleWebKit/537.36 (KHTML, like Gecko) Chrome/128.0.0.0 Safari/537.36" version="24.7.10">
  <diagram name="Página-1" id="ZWAJUgoXye5wEvUNh88_">
    <mxGraphModel dx="1313" dy="816" grid="1" gridSize="10" guides="1" tooltips="1" connect="1" arrows="1" fold="1" page="1" pageScale="1" pageWidth="827" pageHeight="1169" math="0" shadow="0">
      <root>
        <mxCell id="0" />
        <mxCell id="1" parent="0" />
        <mxCell id="ZYz9W3L0-CeYrUK9tWLl-2" style="edgeStyle=orthogonalEdgeStyle;rounded=0;orthogonalLoop=1;jettySize=auto;html=1;" edge="1" parent="1" source="ZYz9W3L0-CeYrUK9tWLl-1" target="ZYz9W3L0-CeYrUK9tWLl-3">
          <mxGeometry relative="1" as="geometry">
            <mxPoint x="240" y="230" as="targetPoint" />
          </mxGeometry>
        </mxCell>
        <mxCell id="ZYz9W3L0-CeYrUK9tWLl-1" value="Actor" style="shape=umlActor;verticalLabelPosition=bottom;verticalAlign=top;html=1;outlineConnect=0;" vertex="1" parent="1">
          <mxGeometry x="70" y="170" width="60" height="120" as="geometry" />
        </mxCell>
        <mxCell id="ZYz9W3L0-CeYrUK9tWLl-6" style="edgeStyle=orthogonalEdgeStyle;rounded=0;orthogonalLoop=1;jettySize=auto;html=1;" edge="1" parent="1" source="ZYz9W3L0-CeYrUK9tWLl-3">
          <mxGeometry relative="1" as="geometry">
            <mxPoint x="430" y="230" as="targetPoint" />
          </mxGeometry>
        </mxCell>
        <mxCell id="ZYz9W3L0-CeYrUK9tWLl-7" value="Include&lt;div&gt;&lt;br&gt;&lt;/div&gt;" style="edgeLabel;html=1;align=center;verticalAlign=middle;resizable=0;points=[];" vertex="1" connectable="0" parent="ZYz9W3L0-CeYrUK9tWLl-6">
          <mxGeometry x="0.0841" y="2" relative="1" as="geometry">
            <mxPoint as="offset" />
          </mxGeometry>
        </mxCell>
        <mxCell id="ZYz9W3L0-CeYrUK9tWLl-3" value="&lt;div&gt;recuperar contraseña&lt;/div&gt;" style="ellipse;whiteSpace=wrap;html=1;" vertex="1" parent="1">
          <mxGeometry x="190" y="190" width="120" height="80" as="geometry" />
        </mxCell>
        <mxCell id="ZYz9W3L0-CeYrUK9tWLl-9" style="edgeStyle=orthogonalEdgeStyle;rounded=0;orthogonalLoop=1;jettySize=auto;html=1;" edge="1" parent="1" source="ZYz9W3L0-CeYrUK9tWLl-8">
          <mxGeometry relative="1" as="geometry">
            <mxPoint x="490" y="360" as="targetPoint" />
          </mxGeometry>
        </mxCell>
        <mxCell id="ZYz9W3L0-CeYrUK9tWLl-10" value="Include&lt;div&gt;&lt;br&gt;&lt;/div&gt;" style="edgeLabel;html=1;align=center;verticalAlign=middle;resizable=0;points=[];" vertex="1" connectable="0" parent="ZYz9W3L0-CeYrUK9tWLl-9">
          <mxGeometry x="0.0939" relative="1" as="geometry">
            <mxPoint as="offset" />
          </mxGeometry>
        </mxCell>
        <mxCell id="ZYz9W3L0-CeYrUK9tWLl-25" style="edgeStyle=orthogonalEdgeStyle;rounded=0;orthogonalLoop=1;jettySize=auto;html=1;" edge="1" parent="1" source="ZYz9W3L0-CeYrUK9tWLl-8" target="ZYz9W3L0-CeYrUK9tWLl-26">
          <mxGeometry relative="1" as="geometry">
            <mxPoint x="490" y="130" as="targetPoint" />
          </mxGeometry>
        </mxCell>
        <mxCell id="ZYz9W3L0-CeYrUK9tWLl-8" value="ingrese correo&lt;div&gt;&lt;br&gt;&lt;/div&gt;" style="ellipse;whiteSpace=wrap;html=1;" vertex="1" parent="1">
          <mxGeometry x="430" y="190" width="120" height="80" as="geometry" />
        </mxCell>
        <mxCell id="ZYz9W3L0-CeYrUK9tWLl-11" value="correo enviado-sigue los pasos para recuperar la contraseña" style="ellipse;whiteSpace=wrap;html=1;" vertex="1" parent="1">
          <mxGeometry x="415" y="360" width="150" height="80" as="geometry" />
        </mxCell>
        <mxCell id="ZYz9W3L0-CeYrUK9tWLl-20" style="edgeStyle=orthogonalEdgeStyle;rounded=0;orthogonalLoop=1;jettySize=auto;html=1;exitX=0.5;exitY=1;exitDx=0;exitDy=0;" edge="1" parent="1">
          <mxGeometry relative="1" as="geometry">
            <mxPoint x="385" y="609.9999999999998" as="sourcePoint" />
            <mxPoint x="385" y="609.9999999999998" as="targetPoint" />
          </mxGeometry>
        </mxCell>
        <mxCell id="ZYz9W3L0-CeYrUK9tWLl-27" value="" style="edgeStyle=orthogonalEdgeStyle;rounded=0;orthogonalLoop=1;jettySize=auto;html=1;" edge="1" parent="1" source="ZYz9W3L0-CeYrUK9tWLl-26" target="ZYz9W3L0-CeYrUK9tWLl-8">
          <mxGeometry relative="1" as="geometry" />
        </mxCell>
        <mxCell id="ZYz9W3L0-CeYrUK9tWLl-28" value="Extend&lt;div&gt;&lt;br&gt;&lt;/div&gt;" style="edgeLabel;html=1;align=center;verticalAlign=middle;resizable=0;points=[];" vertex="1" connectable="0" parent="ZYz9W3L0-CeYrUK9tWLl-27">
          <mxGeometry x="-0.0667" y="1" relative="1" as="geometry">
            <mxPoint y="1" as="offset" />
          </mxGeometry>
        </mxCell>
        <mxCell id="ZYz9W3L0-CeYrUK9tWLl-26" value="Direccion de correo no valida" style="ellipse;whiteSpace=wrap;html=1;" vertex="1" parent="1">
          <mxGeometry x="430" y="50" width="120" height="80" as="geometry" />
        </mxCell>
      </root>
    </mxGraphModel>
  </diagram>
</mxfile>
